<?xml version="1.0" standalone="no"?>
<!DOCTYPE svg PUBLIC "-//W3C//DTD SVG 20010904//EN"
 "http://www.w3.org/TR/2001/REC-SVG-20010904/DTD/svg10.dtd">
<svg version="1.0" xmlns="http://www.w3.org/2000/svg"
 width="512.000000pt" height="512.000000pt" viewBox="0 0 512.000000 512.000000"
 preserveAspectRatio="xMidYMid meet">
<metadata>
Created by potrace 1.14, written by Peter Selinger 2001-2017
</metadata>
<g transform="translate(0.000000,512.000000) scale(0.100000,-0.100000)"
fill="#000000" stroke="none">
<path d="M1680 4900 l0 -140 40 0 40 0 0 140 0 140 -40 0 -40 0 0 -140z"/>
<path d="M1920 4900 l0 -140 40 0 40 0 0 140 0 140 -40 0 -40 0 0 -140z"/>
<path d="M2160 4900 l0 -140 40 0 40 0 0 140 0 140 -40 0 -40 0 0 -140z"/>
<path d="M2400 4900 l0 -140 40 0 40 0 0 140 0 140 -40 0 -40 0 0 -140z"/>
<path d="M2640 4900 l0 -140 40 0 40 0 0 140 0 140 -40 0 -40 0 0 -140z"/>
<path d="M2880 4900 l0 -140 40 0 40 0 0 140 0 140 -40 0 -40 0 0 -140z"/>
<path d="M3120 4900 l0 -140 40 0 40 0 0 140 0 140 -40 0 -40 0 0 -140z"/>
<path d="M3360 4900 l0 -140 40 0 40 0 0 140 0 140 -40 0 -40 0 0 -140z"/>
<path d="M1680 4540 l0 -140 40 0 40 0 0 140 0 140 -40 0 -40 0 0 -140z"/>
<path d="M1920 4540 l0 -140 40 0 40 0 0 140 0 140 -40 0 -40 0 0 -140z"/>
<path d="M2160 4540 l0 -140 40 0 40 0 0 140 0 140 -40 0 -40 0 0 -140z"/>
<path d="M2400 4540 l0 -140 40 0 40 0 0 140 0 140 -40 0 -40 0 0 -140z"/>
<path d="M2640 4540 l0 -140 40 0 40 0 0 140 0 140 -40 0 -40 0 0 -140z"/>
<path d="M2880 4540 l0 -140 40 0 40 0 0 140 0 140 -40 0 -40 0 0 -140z"/>
<path d="M3120 4540 l0 -140 40 0 40 0 0 140 0 140 -40 0 -40 0 0 -140z"/>
<path d="M3360 4540 l0 -140 40 0 40 0 0 140 0 140 -40 0 -40 0 0 -140z"/>
<path d="M173 3873 c-7 -2 -13 -13 -13 -24 0 -17 -8 -19 -80 -19 l-80 0 0
-1275 0 -1275 79 0 c71 0 79 -2 84 -20 5 -19 12 -21 79 -18 l73 3 3 1309 c2
1041 0 1311 -10 1318 -14 8 -115 10 -135 1z"/>
<path d="M4812 3872 c-10 -7 -12 -277 -10 -1318 l3 -1309 73 -3 c67 -3 74 -1
79 18 5 18 13 20 84 20 l79 0 0 1275 0 1275 -80 0 c-72 0 -80 2 -80 19 0 10
-7 22 -16 25 -23 9 -117 7 -132 -2z"/>
<path d="M683 3560 c-12 -5 -26 -18 -32 -29 -7 -13 -11 -172 -11 -476 l0 -456
25 -24 24 -25 1871 0 1871 0 24 25 25 24 0 461 0 461 -25 24 -24 25 -1863 -1
c-1048 0 -1873 -4 -1885 -9z m2805 -17 c-511 -2 -1345 -2 -1855 0 -511 1 -93
2 927 2 1020 0 1438 -1 928 -2z"/>
<path d="M2452 2293 c9 -2 19 -12 21 -21 3 -12 5 -10 6 6 1 17 -4 22 -21 21
-16 -1 -18 -3 -6 -6z"/>
<path d="M2641 2278 c1 -16 3 -18 6 -6 2 9 12 19 21 21 12 3 10 5 -5 6 -18 1
-23 -4 -22 -21z"/>
<path d="M2530 1965 l0 -285 -289 0 c-159 0 -296 -3 -305 -6 -14 -5 -16 -42
-16 -313 0 -168 4 -310 8 -316 4 -6 227 -10 632 -10 405 0 628 4 632 10 4 6 8
148 8 316 0 271 -2 308 -16 313 -9 3 -146 6 -305 6 l-289 0 0 285 0 285 -30 0
-30 0 0 -285z"/>
<path d="M1923 1745 c0 -38 2 -53 4 -32 2 20 2 52 0 70 -2 17 -4 1 -4 -38z"/>
<path d="M3193 1745 c0 -38 2 -53 4 -32 2 20 2 52 0 70 -2 17 -4 1 -4 -38z"/>
<path d="M652 1648 c-17 -17 -17 -599 0 -616 17 -17 599 -17 616 0 17 17 17
599 0 616 -17 17 -599 17 -616 0z"/>
<path d="M3852 1648 c-17 -17 -17 -599 0 -616 17 -17 599 -17 616 0 17 17 17
599 0 616 -17 17 -599 17 -616 0z"/>
<path d="M2252 1023 c170 -2 446 -2 615 0 170 1 31 2 -307 2 -338 0 -477 -1
-308 -2z"/>
<path d="M1280 255 l0 -255 1280 0 1280 0 0 255 0 255 -1280 0 -1280 0 0 -255z"/>
<path d="M923 3 c65 -2 168 -2 230 0 62 1 9 3 -118 3 -126 0 -177 -2 -112 -3z"/>
<path d="M3973 3 c65 -2 168 -2 230 0 62 1 9 3 -118 3 -126 0 -177 -2 -112 -3z"/>
</g>
</svg>
